#!OML:ASF F:\VICON\USERDATA\Patient Classification 1\PLAYGROUND\JustinFriday\JustinFriday.ASF
:FULLY-SPECIFIED
:DEGREES
146
root -3.3155 17.4082 35.4693 -0.602389 10.7238 -10.9305
lowerback 11.7578 4.30154 11.0577
upperback 2.71711 7.28169 5.55195
thorax -3.0613 3.55083 -1.30388
lowerneck -5.44667 2.04052 -2.51379
upperneck 21.4935 3.74284 -2.15625
head 7.49208 1.45956 0.0250189
rclavicle 1.17482e-013 1.66979e-014
rhumerus -27.0074 -9.88123 -71.18
rradius 29.5767
rwrist -11.2865
rhand -14.0042 -25.7183
rfingers 7.12502
rthumb 12.125 -55.347
lclavicle 1.17482e-013 1.66979e-014
lhumerus -40.2419 6.06824 82.8981
lradius 36.1454
lwrist 2.90653
lhand -11.2868 -5.05997
lfingers 7.12502
lthumb 14.7442 24.3956
rfemur -8.24878 -2.78468 30.0459
rtibia 31.6405
rfoot -18.6467 -11.0941
rtoes 8.16854
lfemur -35.7338 9.68122 -10.7345
ltibia 57.6852
lfoot -9.8818 -7.06072
ltoes -1.13202
147
root -3.30975 17.3978 35.6078 -0.543015 11.1231 -10.7174
lowerback 11.7983 4.40036 10.67
upperback 2.68368 7.37393 5.47601
thorax -3.14945 3.59453 -1.19442
lowerneck -5.54108 2.06467 -2.76435
upperneck 21.6212 3.75948 -1.85448
head 7.54038 1.47209 0.168976
rclavicle -4.57205e-014 7.95139e-016
rhumerus -26.6723 -9.21118 -71.278
rradius 29.8384
rwrist -11.5078
rhand -14.2676 -25.3856
rfingers 7.12502
rthumb 11.871 -55.0291
lclavicle -4.57205e-014 7.95139e-016
lhumerus -40.5297 6.04397 83.1675
lradius 36.871
lwrist 2.70403
lhand -10.969 -4.74326
lfingers 7.12502
lthumb 15.0503 24.6897
rfemur -7.62211 -2.9848 29.9108
rtibia 31.4082
rfoot -18.907 -11.5748
rtoes 7.21044
lfemur -36.2874 9.95861 -11.3903
ltibia 55.6367
lfoot -9.76886 -6.45084
ltoes -0.070519
148
root -3.29972 17.391 35.7481 -0.543484 11.4614 -10.939
lowerback 11.8283 4.48793 10.7586
upperback 2.65547 7.51098 5.51765
thorax -3.17799 3.65965 -1.21783
lowerneck -5.68057 2.12911 -2.95254
upperneck 21.6913 3.8671 -1.76301
head 7.58334 1.51509 0.241622
rclavicle 1.33186e-014 1.82882e-014
rhumerus -26.2074 -8.58948 -71.3035
rradius 29.9841
rwrist -11.6611
rhand -14.4215 -25.4438
rfingers 7.12502
rthumb 11.7227 -55.0958
lclavicle 1.33186e-014 1.82882e-014
lhumerus -40.8369 5.98767 83.5514
lradius 37.7682
lwrist 2.79548
lhand -10.9905 -4.51247
lfingers 7.12502
lthumb 15.0296 24.922
rfemur -7.03303 -3.21123 30.2201
rtibia 31.1239
rfoot -19.1941 -11.9504
rtoes 6.55726
lfemur -36.707 10.2497 -11.5559
ltibia 53.5103
lfoot -9.57769 -5.95324
ltoes 2.04082
149
root -3.28865 17.3926 35.8783 -0.51016 11.9131 -11.2192
lowerback 11.8702 4.52255 11.0346
upperback 2.6019 7.60085 5.47961
thorax -3.20848 3.69852 -1.41961
lowerneck -5.36423 2.22068 -2.40394
upperneck 21.1918 4.04209 -2.50905
head 7.38858 1.59057 -0.0871616
rclavicle 2.78299e-014 3.73715e-014
rhumerus -25.657 -8.34139 -71.3451
rradius 30.0369
rwrist -11.5391
rhand -14.7348 -25.8682
rfingers 7.12502
rthumb 11.4205 -55.5371
lclavicle 2.78299e-014 3.73715e-014
lhumerus -40.7883 6.15753 83.6292
lradius 37.7065
lwrist 2.95424
lhand -11.1169 -6.78414
lfingers 7.12502
lthumb 14.9079 22.6594
rfemur -6.52171 -3.2218 30.599
rtibia 30.7502
rfoot -19.4556 -12.2202
rtoes 7.45775
lfemur -37.1813 10.4673 -11.6937
ltibia 51.3289
lfoot -9.54362 -5.46889
ltoes 2.05968
150
root -3.26649 17.3865 36.0174 -0.578701 12.1188 -11.5275
lowerback 11.8842 4.57928 11.417
upperback 2.61248 7.71661 5.3749
thorax -3.12758 3.7563 -1.74177
lowerneck -4.74549 2.31571 -1.35726
upperneck 20.3915 4.20806 -3.63842
head 7.06223 1.67863 -0.627489
rclavicle -7.95139e-015 3.26007e-014
rhumerus -25.1045 -7.95484 -71.5734
rradius 30.0977
rwrist -11.701
rhand -15.5257 -25.8908
rfingers 7.12502
rthumb 10.6577 -55.6005
lclavicle -7.95139e-015 3.26007e-014
lhumerus -40.7577 6.174 83.6808
lradius 37.9892
lwrist 2.88555
lhand -11.0064 -6.38021
lfingers 7.12502
lthumb 15.0143 23.0554
rfemur -5.71809 -3.22328 30.9471
rtibia 30.1739
rfoot -19.4299 -12.291
rtoes 7.88884
lfemur -37.4781 10.8316 -11.7702
ltibia 49.1146
lfoot -9.69749 -4.79184
ltoes 0.0895338
151
root -3.2476 17.3708 36.1525 -0.745394 12.4789 -11.9938
lowerback 12.0601 4.5437 11.7934
upperback 2.59255 7.74785 5.39914
thorax -3.19598 3.76406 -1.93622
lowerneck -4.39208 2.32985 -1.20554
upperneck 19.93 4.20314 -3.78573
head 6.85577 1.68988 -0.707125
rclavicle 1.33186e-014 -2.14687e-014
rhumerus -24.5534 -7.27575 -71.7957
rradius 30.1397
rwrist -12.1454
rhand -16.2983 -24.9245
rfingers 7.12502
rthumb 9.91238 -54.6711
lclavicle 1.33186e-014 -2.14687e-014
lhumerus -40.8914 6.08945 83.8724
lradius 38.3021
lwrist 3.20998
lhand -11.462 -6.4293
lfingers 7.12502
lthumb 14.5754 23.0386
rfemur -4.84556 -3.30469 31.4947
rtibia 29.5286
rfoot -19.4737 -12.6796
rtoes 7.3077
lfemur -37.763 10.9015 -11.6092
ltibia 46.8669
lfoot -9.4989 -3.93299
ltoes 0.830479
152
root -3.22726 17.3666 36.2883 -0.896355 12.8871 -12.5844
lowerback 10.5868 4.6026 12.6173
upperback 3.74159 7.53565 5.40392
thorax -1.07051 3.81575 -2.11193
lowerneck -5.3251 2.31381 -1.44759
upperneck 19.1168 4.14886 -3.62439
head 6.74964 1.65717 -0.609207
rclavicle -4.77083e-014 2.62396e-014
rhumerus -22.1022 -7.64046 -72.0344
rradius 29.885
rwrist -12.2155
rhand -16.7872 -24.4022
rfingers 7.12502
rthumb 9.44064 -54.1708
lclavicle -4.77083e-014 2.62396e-014
lhumerus -38.9668 6.2146 84.3698
lradius 38.351
lwrist 3.53264
lhand -11.9301 -6.2485
lfingers 7.12502
lthumb 14.1244 23.2514
rfemur -4.02592 -3.36771 32.1884
rtibia 28.8709
rfoot -19.6237 -13.2011
rtoes 6.73124
lfemur -38.0058 10.7597 -11.2957
ltibia 44.54
lfoot -9.30208 -3.01456
ltoes 3.9932
153
root -3.20603 17.3532 36.4317 -0.800777 13.2101 -12.7121
lowerback 12.0311 4.63047 12.4299
upperback 2.49986 7.94573 5.36371
thorax -3.16519 3.85487 -2.32866
lowerneck -4.49656 2.41408 -1.46092
upperneck 19.9915 4.27647 -3.35552
head 6.88049 1.73986 -0.519179
rclavicle 6.55989e-014 2.70347e-014
rhumerus -23.5176 -6.95026 -71.8326
rradius 30.1956
rwrist -12.2429
rhand -16.749 -25.0874
rfingers 7.12502
rthumb 9.4775 -54.8543
lclavicle 6.55989e-014 2.70347e-014
lhumerus -41.1599 5.81684 84.3972
lradius 39.1122
lwrist 3.77143
lhand -12.4592 -6.30419
lfingers 7.12502
lthumb 13.6145 23.2306
rfemur -3.35498 -3.40446 32.3866
rtibia 28.275
rfoot -19.7483 -13.5188
rtoes 6.85951
lfemur -38.3085 10.643 -11.5183
ltibia 42.278
lfoot -9.68913 -2.26089
ltoes 5.2062
154
root -3.18294 17.3362 36.5773 -0.507119 13.3715 -12.3945
lowerback 11.8305 4.83023 11.9702
upperback 2.40215 8.12394 5.20987
thorax -3.17782 3.94325 -2.25171
lowerneck -4.64062 2.37079 -2.06905
upperneck 20.3538 4.17929 -2.65341
head 6.9951 1.69833 -0.195029
rclavicle -1.03766e-013 -7.55382e-014
rhumerus -23.0597 -6.80929 -71.7656
rradius 30.1968
rwrist -11.9551
rhand -16.9475 -25.9841
rfingers 7.12502
rthumb 9.28601 -55.7596
lclavicle -1.03766e-013 -7.55382e-014
lhumerus -41.571 5.55993 84.7219
lradius 39.7924
lwrist 3.94978
lhand -13.1747 -6.33591
lfingers 7.12502
lthumb 12.9248 23.2438
rfemur -2.71917 -3.3281 32.0941
rtibia 27.591
rfoot -19.8497 -13.7498
rtoes 6.67115
lfemur -38.5578 10.3875 -12.1134
ltibia 40.0827
lfoot -10.4865 -0.916724
ltoes 2.87956
155
root -3.15527 17.3167 36.7218 -0.412174 13.4123 -12.399
lowerback 11.6899 5.03255 11.9216
upperback 2.42117 8.35501 5.12298
thorax -3.0457 4.06574 -2.32215
lowerneck -5.056 2.29377 -2.49437
upperneck 20.8138 4.08641 -2.24789
head 7.20159 1.64328 0.00937272
rclavicle 8.54774e-015 -1.35174e-014
rhumerus -22.4502 -6.90827 -71.6598
rradius 29.9596
rwrist -11.7391
rhand -17.4539 -25.9319
rfingers 7.12502
rthumb 8.79732 -55.7286
lclavicle 8.54774e-015 -1.35174e-014
lhumerus -41.4292 5.46405 84.9731
lradius 39.6119
lwrist 3.86257
lhand -13.6675 -6.25024
lfingers 7.12502
lthumb 12.4497 23.359
rfemur -1.93723 -3.19758 32.1288
rtibia 26.9419
rfoot -19.9474 -14.0642
rtoes 5.52788
lfemur -38.7779 10.5602 -12.3751
ltibia 38.124
lfoot -11.1908 0.509857
ltoes 1.05072
